<?xml version="1.0" encoding="UTF-8" standalone="no"?>
<!DOCTYPE svg PUBLIC "-//W3C//DTD SVG 1.1//EN"
 "http://www.w3.org/Graphics/SVG/1.1/DTD/svg11.dtd">
<!-- Generated by graphviz version 2.38.0 (20140413.2041)
 -->
<!-- Title: G Pages: 1 -->
<svg width="1989pt" height="884pt"
 viewBox="0.00 0.00 1989.37 883.87" xmlns="http://www.w3.org/2000/svg" xmlns:xlink="http://www.w3.org/1999/xlink">
<g id="graph0" class="graph" transform="scale(1 1) rotate(0) translate(4 879.87)">
<title>G</title>
<polygon fill="white" stroke="none" points="-4,4 -4,-879.87 1985.37,-879.87 1985.37,4 -4,4"/>
<g id="clust1" class="cluster"><title>cluster_run0</title>
<polygon fill="none" stroke="black" points="540.973,-277.87 540.973,-784.87 1973.37,-784.87 1973.37,-277.87 540.973,-277.87"/>
<text text-anchor="middle" x="1257.17" y="-769.67" font-family="Times,serif" font-size="14.00">run0</text>
</g>
<g id="clust2" class="cluster"><title>cluster_pkg0</title>
<polygon fill="none" stroke="black" points="8,-637.87 8,-712.87 322.973,-712.87 322.973,-637.87 8,-637.87"/>
<text text-anchor="middle" x="165.487" y="-697.67" font-family="Times,serif" font-size="14.00">libgdal20 2.1.2+dfsg&#45;5</text>
</g>
<g id="clust3" class="cluster"><title>cluster_pkg1</title>
<polygon fill="none" stroke="black" points="839.13,-792.87 839.13,-867.87 1068.31,-867.87 1068.31,-792.87 839.13,-792.87"/>
<text text-anchor="middle" x="953.721" y="-852.67" font-family="Times,serif" font-size="14.00">proj&#45;data 4.9.3&#45;1</text>
</g>
<!-- prog0 -->
<g id="node1" class="node"><title>prog0</title>
<path fill="black" stroke="black" d="M686.973,-473.87C686.973,-473.87 560.973,-473.87 560.973,-473.87 554.973,-473.87 548.973,-467.87 548.973,-461.87 548.973,-461.87 548.973,-449.87 548.973,-449.87 548.973,-443.87 554.973,-437.87 560.973,-437.87 560.973,-437.87 686.973,-437.87 686.973,-437.87 692.973,-437.87 698.973,-443.87 698.973,-449.87 698.973,-449.87 698.973,-461.87 698.973,-461.87 698.973,-467.87 692.973,-473.87 686.973,-473.87"/>
<text text-anchor="middle" x="623.973" y="-452.17" font-family="Times,serif" font-size="14.00" fill="white">/usr/local/bin/Rscript (1)</text>
</g>
<!-- prog1 -->
<g id="node2" class="node"><title>prog1</title>
<path fill="black" stroke="black" d="M1017.22,-473.87C1017.22,-473.87 890.221,-473.87 890.221,-473.87 884.221,-473.87 878.221,-467.87 878.221,-461.87 878.221,-461.87 878.221,-449.87 878.221,-449.87 878.221,-443.87 884.221,-437.87 890.221,-437.87 890.221,-437.87 1017.22,-437.87 1017.22,-437.87 1023.22,-437.87 1029.22,-443.87 1029.22,-449.87 1029.22,-449.87 1029.22,-461.87 1029.22,-461.87 1029.22,-467.87 1023.22,-473.87 1017.22,-473.87"/>
<text text-anchor="middle" x="953.721" y="-452.17" font-family="Times,serif" font-size="14.00" fill="white">/usr/local/lib/R/bin/R (1)</text>
</g>
<!-- prog0&#45;&gt;prog1 -->
<g id="edge1" class="edge"><title>prog0&#45;&gt;prog1</title>
<path fill="none" stroke="black" d="M699.344,-455.87C749.453,-455.87 815.666,-455.87 867.839,-455.87"/>
<polygon fill="black" stroke="black" points="868.078,-459.37 878.078,-455.87 868.078,-452.37 868.078,-459.37"/>
<text text-anchor="middle" x="729.473" y="-459.67" font-family="Times,serif" font-size="14.00">exec</text>
</g>
<!-- prog2 -->
<g id="node3" class="node"><title>prog2</title>
<path fill="black" stroke="black" d="M1365.97,-473.87C1365.97,-473.87 1291.97,-473.87 1291.97,-473.87 1285.97,-473.87 1279.97,-467.87 1279.97,-461.87 1279.97,-461.87 1279.97,-449.87 1279.97,-449.87 1279.97,-443.87 1285.97,-437.87 1291.97,-437.87 1291.97,-437.87 1365.97,-437.87 1365.97,-437.87 1371.97,-437.87 1377.97,-443.87 1377.97,-449.87 1377.97,-449.87 1377.97,-461.87 1377.97,-461.87 1377.97,-467.87 1371.97,-473.87 1365.97,-473.87"/>
<text text-anchor="middle" x="1328.97" y="-452.17" font-family="Times,serif" font-size="14.00" fill="white">/bin/uname (2)</text>
</g>
<!-- prog1&#45;&gt;prog2 -->
<g id="edge2" class="edge"><title>prog1&#45;&gt;prog2</title>
<path fill="none" stroke="black" d="M1029.36,-455.87C1100.13,-455.87 1205.02,-455.87 1269.8,-455.87"/>
<polygon fill="black" stroke="black" points="1269.84,-459.37 1279.84,-455.87 1269.84,-452.37 1269.84,-459.37"/>
<text text-anchor="middle" x="1193.47" y="-459.67" font-family="Times,serif" font-size="14.00">fork+exec</text>
</g>
<!-- prog3 -->
<g id="node4" class="node"><title>prog3</title>
<path fill="black" stroke="black" d="M1392.47,-668.87C1392.47,-668.87 1265.47,-668.87 1265.47,-668.87 1259.47,-668.87 1253.47,-662.87 1253.47,-656.87 1253.47,-656.87 1253.47,-644.87 1253.47,-644.87 1253.47,-638.87 1259.47,-632.87 1265.47,-632.87 1265.47,-632.87 1392.47,-632.87 1392.47,-632.87 1398.47,-632.87 1404.47,-638.87 1404.47,-644.87 1404.47,-644.87 1404.47,-656.87 1404.47,-656.87 1404.47,-662.87 1398.47,-668.87 1392.47,-668.87"/>
<text text-anchor="middle" x="1328.97" y="-647.17" font-family="Times,serif" font-size="14.00" fill="white">/usr/local/lib/R/bin/R (3)</text>
</g>
<!-- prog1&#45;&gt;prog3 -->
<g id="edge3" class="edge"><title>prog1&#45;&gt;prog3</title>
<path fill="none" stroke="black" d="M989.5,-474.04C1057.79,-509.719 1209.28,-588.862 1284.23,-628.019"/>
<polygon fill="black" stroke="black" points="1282.93,-631.288 1293.41,-632.817 1286.17,-625.084 1282.93,-631.288"/>
<text text-anchor="middle" x="1193.47" y="-597.67" font-family="Times,serif" font-size="14.00">fork</text>
</g>
<!-- prog7 -->
<g id="node8" class="node"><title>prog7</title>
<path fill="black" stroke="black" d="M1406.47,-375.87C1406.47,-375.87 1251.47,-375.87 1251.47,-375.87 1245.47,-375.87 1239.47,-369.87 1239.47,-363.87 1239.47,-363.87 1239.47,-351.87 1239.47,-351.87 1239.47,-345.87 1245.47,-339.87 1251.47,-339.87 1251.47,-339.87 1406.47,-339.87 1406.47,-339.87 1412.47,-339.87 1418.47,-345.87 1418.47,-351.87 1418.47,-351.87 1418.47,-363.87 1418.47,-363.87 1418.47,-369.87 1412.47,-375.87 1406.47,-375.87"/>
<text text-anchor="middle" x="1328.97" y="-354.17" font-family="Times,serif" font-size="14.00" fill="white">/usr/local/lib/R/bin/exec/R (1)</text>
</g>
<!-- prog1&#45;&gt;prog7 -->
<g id="edge7" class="edge"><title>prog1&#45;&gt;prog7</title>
<path fill="none" stroke="black" d="M1023.62,-437.781C1087.43,-421.026 1182.28,-396.122 1249.1,-378.578"/>
<polygon fill="black" stroke="black" points="1250.38,-381.861 1259.16,-375.936 1248.6,-375.091 1250.38,-381.861"/>
<text text-anchor="middle" x="1193.47" y="-402.67" font-family="Times,serif" font-size="14.00">exec</text>
</g>
<!-- prog4 -->
<g id="node5" class="node"><title>prog4</title>
<path fill="black" stroke="black" d="M1698.42,-699.87C1698.42,-699.87 1571.42,-699.87 1571.42,-699.87 1565.42,-699.87 1559.42,-693.87 1559.42,-687.87 1559.42,-687.87 1559.42,-675.87 1559.42,-675.87 1559.42,-669.87 1565.42,-663.87 1571.42,-663.87 1571.42,-663.87 1698.42,-663.87 1698.42,-663.87 1704.42,-663.87 1710.42,-669.87 1710.42,-675.87 1710.42,-675.87 1710.42,-687.87 1710.42,-687.87 1710.42,-693.87 1704.42,-699.87 1698.42,-699.87"/>
<text text-anchor="middle" x="1634.92" y="-678.17" font-family="Times,serif" font-size="14.00" fill="white">/usr/local/lib/R/bin/R (4)</text>
</g>
<!-- prog3&#45;&gt;prog4 -->
<g id="edge4" class="edge"><title>prog3&#45;&gt;prog4</title>
<path fill="none" stroke="black" d="M1404.71,-658.493C1448.43,-662.952 1503.75,-668.594 1549.09,-673.219"/>
<polygon fill="black" stroke="black" points="1548.9,-676.717 1559.2,-674.25 1549.61,-669.753 1548.9,-676.717"/>
<text text-anchor="middle" x="1464.47" y="-670.67" font-family="Times,serif" font-size="14.00">fork</text>
</g>
<!-- prog5 -->
<g id="node6" class="node"><title>prog5</title>
<path fill="black" stroke="black" d="M1662.42,-753.87C1662.42,-753.87 1607.42,-753.87 1607.42,-753.87 1601.42,-753.87 1595.42,-747.87 1595.42,-741.87 1595.42,-741.87 1595.42,-729.87 1595.42,-729.87 1595.42,-723.87 1601.42,-717.87 1607.42,-717.87 1607.42,-717.87 1662.42,-717.87 1662.42,-717.87 1668.42,-717.87 1674.42,-723.87 1674.42,-729.87 1674.42,-729.87 1674.42,-741.87 1674.42,-741.87 1674.42,-747.87 1668.42,-753.87 1662.42,-753.87"/>
<text text-anchor="middle" x="1634.92" y="-732.17" font-family="Times,serif" font-size="14.00" fill="white">/bin/sed (5)</text>
</g>
<!-- prog3&#45;&gt;prog5 -->
<g id="edge5" class="edge"><title>prog3&#45;&gt;prog5</title>
<path fill="none" stroke="black" d="M1384.37,-668.935C1401.06,-674.43 1419.51,-680.447 1436.47,-685.87 1469.27,-696.358 1477.17,-700.071 1510.47,-708.87 1535.04,-715.363 1562.66,-721.509 1585.53,-726.293"/>
<polygon fill="black" stroke="black" points="1584.84,-729.725 1595.35,-728.323 1586.26,-722.87 1584.84,-729.725"/>
<text text-anchor="middle" x="1464.47" y="-707.67" font-family="Times,serif" font-size="14.00">fork+exec</text>
</g>
<!-- prog6 -->
<g id="node7" class="node"><title>prog6</title>
<path fill="black" stroke="black" d="M1662.42,-645.87C1662.42,-645.87 1607.42,-645.87 1607.42,-645.87 1601.42,-645.87 1595.42,-639.87 1595.42,-633.87 1595.42,-633.87 1595.42,-621.87 1595.42,-621.87 1595.42,-615.87 1601.42,-609.87 1607.42,-609.87 1607.42,-609.87 1662.42,-609.87 1662.42,-609.87 1668.42,-609.87 1674.42,-615.87 1674.42,-621.87 1674.42,-621.87 1674.42,-633.87 1674.42,-633.87 1674.42,-639.87 1668.42,-645.87 1662.42,-645.87"/>
<text text-anchor="middle" x="1634.92" y="-624.17" font-family="Times,serif" font-size="14.00" fill="white">/bin/sed (6)</text>
</g>
<!-- prog3&#45;&gt;prog6 -->
<g id="edge6" class="edge"><title>prog3&#45;&gt;prog6</title>
<path fill="none" stroke="black" d="M1404.71,-643.586C1415.37,-642.625 1426.19,-641.69 1436.47,-640.87 1487.19,-636.82 1545.31,-633.105 1585.29,-630.693"/>
<polygon fill="black" stroke="black" points="1585.53,-634.185 1595.3,-630.093 1585.11,-627.197 1585.53,-634.185"/>
<text text-anchor="middle" x="1464.47" y="-644.67" font-family="Times,serif" font-size="14.00">fork+exec</text>
</g>
<!-- prog8 -->
<g id="node9" class="node"><title>prog8</title>
<path fill="#666666" stroke="black" d="M1712.42,-537.87C1712.42,-537.87 1557.42,-537.87 1557.42,-537.87 1551.42,-537.87 1545.42,-531.87 1545.42,-525.87 1545.42,-525.87 1545.42,-513.87 1545.42,-513.87 1545.42,-507.87 1551.42,-501.87 1557.42,-501.87 1557.42,-501.87 1712.42,-501.87 1712.42,-501.87 1718.42,-501.87 1724.42,-507.87 1724.42,-513.87 1724.42,-513.87 1724.42,-525.87 1724.42,-525.87 1724.42,-531.87 1718.42,-537.87 1712.42,-537.87"/>
<text text-anchor="middle" x="1634.92" y="-516.17" font-family="Times,serif" font-size="14.00" fill="white">/usr/local/lib/R/bin/exec/R (7)</text>
</g>
<!-- prog7&#45;&gt;prog8 -->
<g id="edge8" class="edge"><title>prog7&#45;&gt;prog8</title>
<path fill="none" stroke="black" d="M1355.68,-376.019C1374.08,-389.581 1398.95,-409.113 1418.47,-428.87 1427.59,-438.104 1426.59,-443.445 1436.47,-451.87 1465.07,-476.275 1475.29,-479.602 1510.47,-492.87 1518.52,-495.907 1527.01,-498.648 1535.6,-501.111"/>
<polygon fill="black" stroke="black" points="1534.77,-504.511 1545.33,-503.776 1536.61,-497.76 1534.77,-504.511"/>
<text text-anchor="middle" x="1464.47" y="-489.67" font-family="Times,serif" font-size="14.00">thread</text>
</g>
<!-- prog9 -->
<g id="node10" class="node"><title>prog9</title>
<path fill="black" stroke="black" d="M1659.42,-591.87C1659.42,-591.87 1610.42,-591.87 1610.42,-591.87 1604.42,-591.87 1598.42,-585.87 1598.42,-579.87 1598.42,-579.87 1598.42,-567.87 1598.42,-567.87 1598.42,-561.87 1604.42,-555.87 1610.42,-555.87 1610.42,-555.87 1659.42,-555.87 1659.42,-555.87 1665.42,-555.87 1671.42,-561.87 1671.42,-567.87 1671.42,-567.87 1671.42,-579.87 1671.42,-579.87 1671.42,-585.87 1665.42,-591.87 1659.42,-591.87"/>
<text text-anchor="middle" x="1634.92" y="-570.17" font-family="Times,serif" font-size="14.00" fill="white">/bin/sh (8)</text>
</g>
<!-- prog7&#45;&gt;prog9 -->
<g id="edge9" class="edge"><title>prog7&#45;&gt;prog9</title>
<path fill="none" stroke="black" d="M1361.93,-375.954C1381.13,-388.425 1404.47,-406.724 1418.47,-428.87 1437.01,-458.213 1415.64,-477.102 1436.47,-504.87 1471.82,-551.996 1541.66,-567.103 1588.08,-571.847"/>
<polygon fill="black" stroke="black" points="1587.91,-575.346 1598.19,-572.756 1588.54,-568.375 1587.91,-575.346"/>
<text text-anchor="middle" x="1464.47" y="-549.67" font-family="Times,serif" font-size="14.00">fork+exec</text>
</g>
<!-- prog11 -->
<g id="node12" class="node"><title>prog11</title>
<path fill="black" stroke="black" d="M1662.92,-321.87C1662.92,-321.87 1606.92,-321.87 1606.92,-321.87 1600.92,-321.87 1594.92,-315.87 1594.92,-309.87 1594.92,-309.87 1594.92,-297.87 1594.92,-297.87 1594.92,-291.87 1600.92,-285.87 1606.92,-285.87 1606.92,-285.87 1662.92,-285.87 1662.92,-285.87 1668.92,-285.87 1674.92,-291.87 1674.92,-297.87 1674.92,-297.87 1674.92,-309.87 1674.92,-309.87 1674.92,-315.87 1668.92,-321.87 1662.92,-321.87"/>
<text text-anchor="middle" x="1634.92" y="-300.17" font-family="Times,serif" font-size="14.00" fill="white">/bin/sh (10)</text>
</g>
<!-- prog7&#45;&gt;prog11 -->
<g id="edge11" class="edge"><title>prog7&#45;&gt;prog11</title>
<path fill="none" stroke="black" d="M1418.59,-342.052C1424.64,-340.974 1430.64,-339.906 1436.47,-338.87 1486.92,-329.898 1544.63,-319.673 1584.57,-312.602"/>
<polygon fill="black" stroke="black" points="1585.34,-316.019 1594.58,-310.83 1584.12,-309.127 1585.34,-316.019"/>
<text text-anchor="middle" x="1464.47" y="-342.67" font-family="Times,serif" font-size="14.00">fork+exec</text>
</g>
<!-- prog13 -->
<g id="node14" class="node"><title>prog13</title>
<path fill="black" stroke="black" d="M1662.92,-375.87C1662.92,-375.87 1606.92,-375.87 1606.92,-375.87 1600.92,-375.87 1594.92,-369.87 1594.92,-363.87 1594.92,-363.87 1594.92,-351.87 1594.92,-351.87 1594.92,-345.87 1600.92,-339.87 1606.92,-339.87 1606.92,-339.87 1662.92,-339.87 1662.92,-339.87 1668.92,-339.87 1674.92,-345.87 1674.92,-351.87 1674.92,-351.87 1674.92,-363.87 1674.92,-363.87 1674.92,-369.87 1668.92,-375.87 1662.92,-375.87"/>
<text text-anchor="middle" x="1634.92" y="-354.17" font-family="Times,serif" font-size="14.00" fill="white">/bin/sh (12)</text>
</g>
<!-- prog7&#45;&gt;prog13 -->
<g id="edge13" class="edge"><title>prog7&#45;&gt;prog13</title>
<path fill="none" stroke="black" d="M1418.7,-357.87C1472.83,-357.87 1540,-357.87 1584.76,-357.87"/>
<polygon fill="black" stroke="black" points="1584.79,-361.37 1594.79,-357.87 1584.79,-354.37 1584.79,-361.37"/>
<text text-anchor="middle" x="1464.47" y="-361.67" font-family="Times,serif" font-size="14.00">fork+exec</text>
</g>
<!-- prog15 -->
<g id="node16" class="node"><title>prog15</title>
<path fill="#666666" stroke="black" d="M1715.92,-429.87C1715.92,-429.87 1553.92,-429.87 1553.92,-429.87 1547.92,-429.87 1541.92,-423.87 1541.92,-417.87 1541.92,-417.87 1541.92,-405.87 1541.92,-405.87 1541.92,-399.87 1547.92,-393.87 1553.92,-393.87 1553.92,-393.87 1715.92,-393.87 1715.92,-393.87 1721.92,-393.87 1727.92,-399.87 1727.92,-405.87 1727.92,-405.87 1727.92,-417.87 1727.92,-417.87 1727.92,-423.87 1721.92,-429.87 1715.92,-429.87"/>
<text text-anchor="middle" x="1634.92" y="-408.17" font-family="Times,serif" font-size="14.00" fill="white">/usr/local/lib/R/bin/exec/R (14)</text>
</g>
<!-- prog7&#45;&gt;prog15 -->
<g id="edge15" class="edge"><title>prog7&#45;&gt;prog15</title>
<path fill="none" stroke="black" d="M1418.59,-373.688C1424.64,-374.766 1430.64,-375.834 1436.47,-376.87 1467.26,-382.346 1500.76,-388.29 1531.28,-393.698"/>
<polygon fill="black" stroke="black" points="1531.04,-397.211 1541.5,-395.51 1532.26,-390.318 1531.04,-397.211"/>
<text text-anchor="middle" x="1464.47" y="-390.67" font-family="Times,serif" font-size="14.00">thread</text>
</g>
<!-- prog16 -->
<g id="node17" class="node"><title>prog16</title>
<path fill="black" stroke="black" d="M1662.92,-483.87C1662.92,-483.87 1606.92,-483.87 1606.92,-483.87 1600.92,-483.87 1594.92,-477.87 1594.92,-471.87 1594.92,-471.87 1594.92,-459.87 1594.92,-459.87 1594.92,-453.87 1600.92,-447.87 1606.92,-447.87 1606.92,-447.87 1662.92,-447.87 1662.92,-447.87 1668.92,-447.87 1674.92,-453.87 1674.92,-459.87 1674.92,-459.87 1674.92,-471.87 1674.92,-471.87 1674.92,-477.87 1668.92,-483.87 1662.92,-483.87"/>
<text text-anchor="middle" x="1634.92" y="-462.17" font-family="Times,serif" font-size="14.00" fill="white">/bin/sh (15)</text>
</g>
<!-- prog7&#45;&gt;prog16 -->
<g id="edge16" class="edge"><title>prog7&#45;&gt;prog16</title>
<path fill="none" stroke="black" d="M1369.9,-375.914C1389.88,-384.931 1414.45,-395.997 1436.47,-405.87 1469.33,-420.602 1476.26,-427.631 1510.47,-438.87 1534.53,-446.773 1561.98,-453.038 1584.89,-457.536"/>
<polygon fill="black" stroke="black" points="1584.25,-460.977 1594.73,-459.416 1585.56,-454.102 1584.25,-460.977"/>
<text text-anchor="middle" x="1464.47" y="-436.67" font-family="Times,serif" font-size="14.00">fork+exec</text>
</g>
<!-- /test/ajps&#45;example/Rplots.pdf -->
<g id="node21" class="node"><title>/test/ajps&#45;example/Rplots.pdf</title>
<ellipse fill="#a3b4e0" stroke="black" cx="1634.92" cy="-240.87" rx="124.402" ry="26.7407"/>
<text text-anchor="middle" x="1634.92" y="-244.67" font-family="Times,serif" font-size="14.00" fill="#131c39">Rplots.pdf</text>
<text text-anchor="middle" x="1634.92" y="-229.67" font-family="Times,serif" font-size="14.00" fill="#131c39">/test/ajps&#45;example/Rplots.pdf</text>
</g>
<!-- prog7&#45;&gt;/test/ajps&#45;example/Rplots.pdf -->
<g id="edge22" class="edge"><title>prog7&#45;&gt;/test/ajps&#45;example/Rplots.pdf</title>
<path fill="none" stroke="#000088" d="M1364.15,-339.772C1399.9,-321.369 1458,-292.926 1510.47,-273.87 1520.45,-270.246 1531.01,-266.824 1541.58,-263.655"/>
<polygon fill="#000088" stroke="#000088" points="1542.67,-266.983 1551.29,-260.817 1540.71,-260.265 1542.67,-266.983"/>
</g>
<!-- prog10 -->
<g id="node11" class="node"><title>prog10</title>
<path fill="black" stroke="black" d="M1953.37,-591.87C1953.37,-591.87 1863.37,-591.87 1863.37,-591.87 1857.37,-591.87 1851.37,-585.87 1851.37,-579.87 1851.37,-579.87 1851.37,-567.87 1851.37,-567.87 1851.37,-561.87 1857.37,-555.87 1863.37,-555.87 1863.37,-555.87 1953.37,-555.87 1953.37,-555.87 1959.37,-555.87 1965.37,-561.87 1965.37,-567.87 1965.37,-567.87 1965.37,-579.87 1965.37,-579.87 1965.37,-585.87 1959.37,-591.87 1953.37,-591.87"/>
<text text-anchor="middle" x="1908.37" y="-570.17" font-family="Times,serif" font-size="14.00" fill="white">/usr/bin/which (9)</text>
</g>
<!-- prog9&#45;&gt;prog10 -->
<g id="edge10" class="edge"><title>prog9&#45;&gt;prog10</title>
<path fill="none" stroke="black" d="M1671.69,-573.87C1714.69,-573.87 1787.75,-573.87 1841.15,-573.87"/>
<polygon fill="black" stroke="black" points="1841.22,-577.37 1851.22,-573.87 1841.22,-570.37 1841.22,-577.37"/>
<text text-anchor="middle" x="1805.37" y="-577.67" font-family="Times,serif" font-size="14.00">fork+exec</text>
</g>
<!-- prog12 -->
<g id="node13" class="node"><title>prog12</title>
<path fill="black" stroke="black" d="M1948.37,-321.87C1948.37,-321.87 1868.37,-321.87 1868.37,-321.87 1862.37,-321.87 1856.37,-315.87 1856.37,-309.87 1856.37,-309.87 1856.37,-297.87 1856.37,-297.87 1856.37,-291.87 1862.37,-285.87 1868.37,-285.87 1868.37,-285.87 1948.37,-285.87 1948.37,-285.87 1954.37,-285.87 1960.37,-291.87 1960.37,-297.87 1960.37,-297.87 1960.37,-309.87 1960.37,-309.87 1960.37,-315.87 1954.37,-321.87 1948.37,-321.87"/>
<text text-anchor="middle" x="1908.37" y="-300.17" font-family="Times,serif" font-size="14.00" fill="white">/bin/uname (11)</text>
</g>
<!-- prog11&#45;&gt;prog12 -->
<g id="edge12" class="edge"><title>prog11&#45;&gt;prog12</title>
<path fill="none" stroke="black" d="M1675.1,-303.87C1719.84,-303.87 1793.58,-303.87 1845.97,-303.87"/>
<polygon fill="black" stroke="black" points="1846.15,-307.37 1856.15,-303.87 1846.15,-300.37 1846.15,-307.37"/>
<text text-anchor="middle" x="1805.37" y="-307.67" font-family="Times,serif" font-size="14.00">fork+exec</text>
</g>
<!-- prog14 -->
<g id="node15" class="node"><title>prog14</title>
<path fill="black" stroke="black" d="M1950.87,-375.87C1950.87,-375.87 1865.87,-375.87 1865.87,-375.87 1859.87,-375.87 1853.87,-369.87 1853.87,-363.87 1853.87,-363.87 1853.87,-351.87 1853.87,-351.87 1853.87,-345.87 1859.87,-339.87 1865.87,-339.87 1865.87,-339.87 1950.87,-339.87 1950.87,-339.87 1956.87,-339.87 1962.87,-345.87 1962.87,-351.87 1962.87,-351.87 1962.87,-363.87 1962.87,-363.87 1962.87,-369.87 1956.87,-375.87 1950.87,-375.87"/>
<text text-anchor="middle" x="1908.37" y="-354.17" font-family="Times,serif" font-size="14.00" fill="white">/usr/bin/tput (13)</text>
</g>
<!-- prog13&#45;&gt;prog14 -->
<g id="edge14" class="edge"><title>prog13&#45;&gt;prog14</title>
<path fill="none" stroke="black" d="M1675.1,-357.87C1719.15,-357.87 1791.32,-357.87 1843.54,-357.87"/>
<polygon fill="black" stroke="black" points="1843.7,-361.37 1853.7,-357.87 1843.7,-354.37 1843.7,-361.37"/>
<text text-anchor="middle" x="1805.37" y="-361.67" font-family="Times,serif" font-size="14.00">fork+exec</text>
</g>
<!-- prog17 -->
<g id="node18" class="node"><title>prog17</title>
<path fill="black" stroke="black" d="M1937.87,-483.87C1937.87,-483.87 1878.87,-483.87 1878.87,-483.87 1872.87,-483.87 1866.87,-477.87 1866.87,-471.87 1866.87,-471.87 1866.87,-459.87 1866.87,-459.87 1866.87,-453.87 1872.87,-447.87 1878.87,-447.87 1878.87,-447.87 1937.87,-447.87 1937.87,-447.87 1943.87,-447.87 1949.87,-453.87 1949.87,-459.87 1949.87,-459.87 1949.87,-471.87 1949.87,-471.87 1949.87,-477.87 1943.87,-483.87 1937.87,-483.87"/>
<text text-anchor="middle" x="1908.37" y="-462.17" font-family="Times,serif" font-size="14.00" fill="white">/bin/rm (16)</text>
</g>
<!-- prog16&#45;&gt;prog17 -->
<g id="edge17" class="edge"><title>prog16&#45;&gt;prog17</title>
<path fill="none" stroke="black" d="M1675.1,-465.87C1722.86,-465.87 1803.7,-465.87 1856.3,-465.87"/>
<polygon fill="black" stroke="black" points="1856.42,-469.37 1866.42,-465.87 1856.42,-462.37 1856.42,-469.37"/>
<text text-anchor="middle" x="1805.37" y="-469.67" font-family="Times,serif" font-size="14.00">fork+exec</text>
</g>
<!-- /usr/share/gdal/2.1/prime_meridian.csv -->
<g id="node19" class="node"><title>/usr/share/gdal/2.1/prime_meridian.csv</title>
<ellipse fill="#c9d2ed" stroke="black" cx="165.487" cy="-663.87" rx="149.473" ry="18"/>
<text text-anchor="middle" x="165.487" y="-660.17" font-family="Times,serif" font-size="14.00" fill="#131c39">/usr/share/gdal/2.1/prime_meridian.csv</text>
</g>
<!-- /usr/share/proj/proj_def.dat -->
<g id="node20" class="node"><title>/usr/share/proj/proj_def.dat</title>
<ellipse fill="#c9d2ed" stroke="black" cx="953.721" cy="-818.87" rx="106.681" ry="18"/>
<text text-anchor="middle" x="953.721" y="-815.17" font-family="Times,serif" font-size="14.00" fill="#131c39">/usr/share/proj/proj_def.dat</text>
</g>
<!-- /usr/share/proj/proj_def.dat&#45;&gt;prog7 -->
<g id="edge20" class="edge"><title>/usr/share/proj/proj_def.dat&#45;&gt;prog7</title>
<path fill="none" stroke="#8888cc" d="M1059.46,-821.465C1090.43,-817.533 1122.66,-808.27 1147.47,-788.87 1214.32,-736.603 1200.66,-695.134 1221.47,-612.87 1241.62,-533.211 1200.36,-501.133 1239.47,-428.87 1250.02,-409.368 1268.41,-393.288 1285.7,-381.391"/>
<polygon fill="#8888cc" stroke="#8888cc" points="1287.63,-384.311 1294.06,-375.891 1283.78,-378.463 1287.63,-384.311"/>
</g>
<!-- /test/ajps&#45;example/Stokes_AJPS_Replication.R -->
<g id="node22" class="node"><title>/test/ajps&#45;example/Stokes_AJPS_Replication.R</title>
<ellipse fill="#a3b4e0" stroke="black" cx="953.721" cy="-242.87" rx="193.995" ry="26.7407"/>
<text text-anchor="middle" x="953.721" y="-246.67" font-family="Times,serif" font-size="14.00" fill="#131c39">arg</text>
<text text-anchor="middle" x="953.721" y="-231.67" font-family="Times,serif" font-size="14.00" fill="#131c39">/test/ajps&#45;example/Stokes_AJPS_Replication.R</text>
</g>
<!-- /test/ajps&#45;example/Stokes_AJPS_Replication.R&#45;&gt;prog7 -->
<g id="edge19" class="edge"><title>/test/ajps&#45;example/Stokes_AJPS_Replication.R&#45;&gt;prog7</title>
<path fill="none" stroke="#8888cc" d="M1096.55,-261.081C1113.87,-264.65 1131.18,-268.877 1147.47,-273.87 1197.37,-289.17 1251.2,-315.648 1286.97,-334.792"/>
<polygon fill="#8888cc" stroke="#8888cc" points="1285.65,-338.057 1296.11,-339.736 1288.98,-331.9 1285.65,-338.057"/>
</g>
<!-- /test/ajps&#45;example/newspapers_count.csv -->
<g id="node23" class="node"><title>/test/ajps&#45;example/newspapers_count.csv</title>
<ellipse fill="#a3b4e0" stroke="black" cx="953.721" cy="-170.87" rx="170.326" ry="26.7407"/>
<text text-anchor="middle" x="953.721" y="-174.67" font-family="Times,serif" font-size="14.00" fill="#131c39">newspapers_count.csv</text>
<text text-anchor="middle" x="953.721" y="-159.67" font-family="Times,serif" font-size="14.00" fill="#131c39">/test/ajps&#45;example/newspapers_count.csv</text>
</g>
<!-- /test/ajps&#45;example/newspapers_count.csv&#45;&gt;prog7 -->
<g id="edge23" class="edge"><title>/test/ajps&#45;example/newspapers_count.csv&#45;&gt;prog7</title>
<path fill="none" stroke="#8888cc" d="M1090.22,-187.051C1109.95,-191.995 1129.61,-198.449 1147.47,-206.87 1212.64,-237.603 1273.68,-297.656 1305.35,-332.045"/>
<polygon fill="#8888cc" stroke="#8888cc" points="1303.08,-334.744 1312.39,-339.793 1308.26,-330.037 1303.08,-334.744"/>
</g>
<!-- /test/ajps&#45;example/precincts0711.csv -->
<g id="node24" class="node"><title>/test/ajps&#45;example/precincts0711.csv</title>
<ellipse fill="#a3b4e0" stroke="black" cx="953.721" cy="-98.8701" rx="153.384" ry="26.7407"/>
<text text-anchor="middle" x="953.721" y="-102.67" font-family="Times,serif" font-size="14.00" fill="#131c39">precincts0711.csv</text>
<text text-anchor="middle" x="953.721" y="-87.6701" font-family="Times,serif" font-size="14.00" fill="#131c39">/test/ajps&#45;example/precincts0711.csv</text>
</g>
<!-- /test/ajps&#45;example/precincts0711.csv&#45;&gt;prog7 -->
<g id="edge24" class="edge"><title>/test/ajps&#45;example/precincts0711.csv&#45;&gt;prog7</title>
<path fill="none" stroke="#8888cc" d="M1087.45,-112.046C1108.33,-117.356 1129.07,-124.709 1147.47,-134.87 1230.65,-180.802 1290.1,-282.123 1314.99,-330.768"/>
<polygon fill="#8888cc" stroke="#8888cc" points="1311.89,-332.394 1319.5,-339.762 1318.15,-329.255 1311.89,-332.394"/>
</g>
<!-- /test/ajps&#45;example/replication_file.csv -->
<g id="node25" class="node"><title>/test/ajps&#45;example/replication_file.csv</title>
<ellipse fill="#a3b4e0" stroke="black" cx="953.721" cy="-26.8701" rx="158.284" ry="26.7407"/>
<text text-anchor="middle" x="953.721" y="-30.6701" font-family="Times,serif" font-size="14.00" fill="#131c39">replication_file.csv</text>
<text text-anchor="middle" x="953.721" y="-15.6701" font-family="Times,serif" font-size="14.00" fill="#131c39">/test/ajps&#45;example/replication_file.csv</text>
</g>
<!-- /test/ajps&#45;example/replication_file.csv&#45;&gt;prog7 -->
<g id="edge21" class="edge"><title>/test/ajps&#45;example/replication_file.csv&#45;&gt;prog7</title>
<path fill="none" stroke="#8888cc" d="M1090.04,-40.6047C1110.05,-45.872 1129.84,-53.0662 1147.47,-62.8701 1252.38,-121.22 1303.52,-268.362 1320.88,-330.015"/>
<polygon fill="#8888cc" stroke="#8888cc" points="1317.55,-331.099 1323.56,-339.823 1324.3,-329.254 1317.55,-331.099"/>
</g>
<!-- /usr/local/bin/Rscript -->
<g id="node26" class="node"><title>/usr/local/bin/Rscript</title>
<ellipse fill="#c9d2ed" stroke="black" cx="165.487" cy="-455.87" rx="85.2851" ry="18"/>
<text text-anchor="middle" x="165.487" y="-452.17" font-family="Times,serif" font-size="14.00" fill="#131c39">/usr/local/bin/Rscript</text>
</g>
<!-- /usr/local/bin/Rscript&#45;&gt;prog0 -->
<g id="edge18" class="edge"><title>/usr/local/bin/Rscript&#45;&gt;prog0</title>
<path fill="none" stroke="black" stroke-width="2" d="M250.745,-455.87C332.726,-455.87 456.593,-455.87 538.609,-455.87"/>
<polygon fill="black" stroke="black" stroke-width="2" points="538.647,-459.37 548.647,-455.87 538.647,-452.37 538.647,-459.37"/>
<text text-anchor="middle" x="431.973" y="-459.67" font-family="Times,serif" font-size="14.00">Rscript Stokes_AJPS_Replication.R</text>
</g>
</g>
</svg>
